# xmcd
#
# Track frame offsets:
#  150
#  41429
#  81206
#  104170
#  136469
#  173843
#  200081
#  223178
#
# Disc length: 3714 seconds
#
# Revision: 1
# Processed by: cddbd v1.5.1PL0 Copyright (c) Steve Scherf et al.
# Submitted via: AltoMP3_Maker 3.0
#
DISCID=790e8008
DTITLE=Himalayan Feelings - Himalayan Feelings
DYEAR=1900
DGENRE=
TTITLE0=Bihani
TTITLE1=Ukali Orali
TTITLE2=Sorathi - Music Of Gurung Tribes
TTITLE3=Namche - Sherpa's Feeling
TTITLE4=Chandra Grahan - Moon Eclips
TTITLE5=World Music
TTITLE6=Festivals Of Pokhara
TTITLE7=Nepali Vibes
EXTD=
EXTT0=
EXTT1=
EXTT2=
EXTT3=
EXTT4=
EXTT5=
EXTT6=
EXTT7=
PLAYORDER=
